<svg version="1.1" xmlns="http://www.w3.org/2000/svg" xmlns:xlink="http://www.w3.org/1999/xlink" width="844.40417" height="74.84167" viewBox="297.79792,343.95416,844.40417,74.84167"><g fill="#000000" fill-rule="nonzero" stroke="none" stroke-width="1" stroke-linecap="butt" stroke-linejoin="miter" stroke-miterlimit="10" stroke-dasharray="" stroke-dashoffset="0" font-family="none" font-weight="none" font-size="none" text-anchor="none" style="mix-blend-mode: normal"><path d="M319.11875,416.95833v0h-21.32083v-71.16667h21.4375v0c8.225,0 15.08889,1.46806 20.59167,4.40417v0v0c5.48333,2.91667 9.64444,6.96111 12.48333,12.13333v0v0c2.91667,5.425 4.375,11.95833 4.375,19.6v0v0c0,11.47222 -3.25694,20.18333 -9.77083,26.13333v0v0c-6.51389,5.93056 -15.77917,8.89583 -27.79583,8.89583M313.81042,402.25833h3.675v0c5.44444,0 9.8,-0.62222 13.06667,-1.86667v0v0c3.26667,-1.24444 5.71667,-3.31528 7.35,-6.2125v0v0c1.76944,-3.01389 2.65417,-7.30139 2.65417,-12.8625v0v0c0,-5.13333 -0.7875,-9.21667 -2.3625,-12.25v0v0c-1.59444,-3.05278 -3.99583,-5.24028 -7.20417,-6.5625v0v0c-3.20833,-1.34167 -7.23333,-2.0125 -12.075,-2.0125v0h-5.10417zM380.98125,396.62917v20.32917h-15.4v-50.34167h15.51667v6.79583v0c1.36111,-2.48889 3.17917,-4.42361 5.45417,-5.80417v0v0c2.275,-1.4 4.67639,-2.1 7.20417,-2.1v0v0c3.63611,0 7,1.08889 10.09167,3.26667v0l-7.35,13.88333v0c-0.77778,-0.50556 -1.75972,-0.94306 -2.94583,-1.3125v0v0c-1.20556,-0.35 -2.40139,-0.525 -3.5875,-0.525v0v0c-3.85,0 -6.50417,1.93472 -7.9625,5.80417v0v0c-0.36944,0.95278 -0.63194,2.17778 -0.7875,3.675v0v0c-0.15556,1.49722 -0.23333,3.60694 -0.23333,6.32917zM433.77292,418.09583v0v0c-5.89167,0 -10.75278,-1.225 -14.58333,-3.675v0v0c-3.83056,-2.43056 -6.63056,-5.61944 -8.4,-9.56667v0v0c-1.76944,-3.94722 -2.65417,-8.21528 -2.65417,-12.80417v0v0c0,-4.49167 0.85556,-8.75 2.56667,-12.775v0v0c1.73056,-4.04444 4.45278,-7.35 8.16667,-9.91667v0v0c3.73333,-2.56667 8.42917,-3.85 14.0875,-3.85v0v0c5.26944,0 9.68333,1.15694 13.24167,3.47083v0v0c3.55833,2.31389 6.23194,5.47361 8.02083,9.47917v0v0c1.80833,4.025 2.7125,8.62361 2.7125,13.79583v0v0c0,1.12778 -0.09722,2.76111 -0.29167,4.9v0h-33.075v0c0.29167,2.13889 1.27361,3.85 2.94583,5.13333v0v0c1.67222,1.26389 4.12222,1.89583 7.35,1.89583v0v0c1.90556,0 3.79167,-0.37917 5.65833,-1.1375v0v0c1.88611,-0.75833 3.53889,-2.0125 4.95833,-3.7625v0l10.61667,9.39167v0c-5.44444,6.28056 -12.55139,9.42083 -21.32083,9.42083M423.36042,385.80833h18.87083v0c-0.175,-2.45 -1.16667,-4.31667 -2.975,-5.6v0v0c-1.82778,-1.30278 -3.99583,-1.95417 -6.50417,-1.95417v0v0c-2.89722,0 -5.09444,0.74861 -6.59167,2.24583v0v0c-1.49722,1.49722 -2.43056,3.26667 -2.8,5.30833v0M442.08542,387.64583l-0.05833,0.175l0.05833,-0.05833zM483.38542,418.09583v0v0c-3.92778,0 -7.35,-0.75833 -10.26667,-2.275v0v0c-2.93611,-1.49722 -5.21111,-3.54861 -6.825,-6.15417v0v0c-1.61389,-2.625 -2.42083,-5.60972 -2.42083,-8.95417v0v0c0,-2.99444 0.62222,-5.5125 1.86667,-7.55417v0v0c1.24444,-2.06111 2.93611,-3.65556 5.075,-4.78333v0v0c3.09167,-1.71111 6.97083,-2.56667 11.6375,-2.56667v0h13.88333v-0.81667v0c0,-1.76944 -0.71944,-3.22778 -2.15833,-4.375v0v0c-1.45833,-1.16667 -3.62639,-1.75 -6.50417,-1.75v0v0c-4.29722,0 -8.35139,1.80833 -12.1625,5.425v0l-11.1125,-9.30417v0c3.22778,-3.28611 6.99028,-5.6875 11.2875,-7.20417v0v0c4.31667,-1.51667 8.68194,-2.275 13.09583,-2.275v0v0c4.9,0 9.05139,0.81667 12.45417,2.45v0v0c3.40278,1.63333 5.98889,3.90833 7.75833,6.825v0v0c1.76944,2.93611 2.65417,6.33889 2.65417,10.20833v0v31.96667h-14.0875l-1.02083,-5.01667v0c-3.05278,4.10278 -7.4375,6.15417 -13.15417,6.15417M485.83542,405.72917v0v0c2.72222,0 5.09444,-0.7875 7.11667,-2.3625v0v0c2.02222,-1.55556 3.15,-3.62639 3.38333,-6.2125v0h-11.6375v0c-3.5,0 -5.29861,1.29306 -5.39583,3.87917v0v0c0,1.45833 0.60278,2.60556 1.80833,3.44167v0v0c1.20556,0.83611 2.78056,1.25417 4.725,1.25417zM598.62292,384.49583v32.4625h-15.4v-28.7v0c0,-6.26111 -2.38194,-9.39167 -7.14583,-9.39167v0v0c-2.85833,0 -4.91944,1.15694 -6.18333,3.47083v0v0c-1.26389,2.29444 -1.89583,5.69722 -1.89583,10.20833v0v24.4125h-15.3125v-28.7v0c0,-3.18889 -0.6125,-5.55139 -1.8375,-7.0875v0v0c-1.225,-1.53611 -2.85833,-2.30417 -4.9,-2.30417v0v0c-2.95556,0 -5.10417,1.15694 -6.44583,3.47083v0v0c-1.34167,2.29444 -2.0125,5.69722 -2.0125,10.20833v0v24.4125h-15.42917v-50.34167h15.42917v4.75417v0c3.22778,-3.90833 7.65139,-5.8625 13.27083,-5.8625v0v0c6.14444,0 10.84028,2.10972 14.0875,6.32917v0v0c1.96389,-2.275 4.18056,-3.89861 6.65,-4.87083v0v0c2.46944,-0.97222 5.22083,-1.45833 8.25417,-1.45833v0v0c4.23889,0 7.75833,0.92361 10.55833,2.77083v0v0c2.78056,1.86667 4.86111,4.23889 6.24167,7.11667v0v0c1.38056,2.89722 2.07083,5.93056 2.07083,9.1zM669.17708,388.87083v28.0875h-16.04167v-28.0875l-24.90833,-43.07917h18.2875l14.29167,27.15417l14.7875,-27.15417h18.17083zM722.55208,418.09583v0v0c-5.17222,0 -9.70278,-1.18611 -13.59167,-3.55833v0v0c-3.90833,-2.37222 -6.94167,-5.55139 -9.1,-9.5375v0v0c-2.15833,-3.96667 -3.2375,-8.39028 -3.2375,-13.27083v0v0c0,-5.26944 1.15694,-9.86806 3.47083,-13.79583v0v0c2.31389,-3.92778 5.43472,-6.98056 9.3625,-9.15833v0v0c3.92778,-2.17778 8.29306,-3.26667 13.09583,-3.26667v0v0c5.17222,0 9.69306,1.17639 13.5625,3.52917v0v0c3.88889,2.33333 6.90278,5.48333 9.04167,9.45v0v0c2.15833,3.96667 3.2375,8.38056 3.2375,13.24167v0v0c0,5.28889 -1.16667,9.90694 -3.5,13.85417v0v0c-2.33333,3.94722 -5.46389,7.01944 -9.39167,9.21667v0v0c-3.90833,2.19722 -8.225,3.29583 -12.95,3.29583M722.55208,404.59167v0v0c3.46111,0 6.06667,-1.12778 7.81667,-3.38333v0v0c1.73056,-2.25556 2.59583,-5.41528 2.59583,-9.47917v0v0c0,-4.00556 -0.86528,-7.13611 -2.59583,-9.39167v0v0c-1.75,-2.23611 -4.35556,-3.35417 -7.81667,-3.35417v0v0c-3.36389,0 -5.95972,1.06944 -7.7875,3.20833v0v0c-1.82778,2.13889 -2.74167,5.31806 -2.74167,9.5375v0v0c0,4.06389 0.89444,7.22361 2.68333,9.47917v0v0c1.78889,2.25556 4.40417,3.38333 7.84583,3.38333zM775.43125,418.09583v0v0c-6.39722,0 -11.14167,-1.82778 -14.23333,-5.48333v0v0c-3.09167,-3.63611 -4.6375,-8.58472 -4.6375,-14.84583v0v-31.15h15.4v27.97083v0c0,2.02222 0.21389,3.79167 0.64167,5.30833v0v0c0.42778,1.49722 1.21528,2.67361 2.3625,3.52917v0v0c1.16667,0.85556 2.8875,1.28333 5.1625,1.28333v0v0c2.93611,0 5.06528,-0.90417 6.3875,-2.7125v0v0c1.225,-1.63333 2.0125,-3.85972 2.3625,-6.67917v0v0c0.36944,-2.81944 0.55417,-6.83472 0.55417,-12.04583v0v-16.65417h15.4v50.34167h-15.4v-4.9v0c-3.40278,4.025 -8.06944,6.0375 -14,6.0375zM831.37292,396.62917v20.32917h-15.42917v-50.34167h15.54583v6.79583v0c1.36111,-2.48889 3.17917,-4.42361 5.45417,-5.80417v0v0c2.275,-1.4 4.67639,-2.1 7.20417,-2.1v0v0c3.63611,0 7,1.08889 10.09167,3.26667v0l-7.35,13.88333v0c-0.77778,-0.50556 -1.76944,-0.94306 -2.975,-1.3125v0v0c-1.18611,-0.35 -2.37222,-0.525 -3.55833,-0.525v0v0c-3.85,0 -6.50417,1.93472 -7.9625,5.80417v0v0c-0.36944,0.95278 -0.63194,2.17778 -0.7875,3.675v0v0c-0.15556,1.49722 -0.23333,3.60694 -0.23333,6.32917zM918.05625,418.79583v0v0c-7.19444,0 -13.3875,-1.62361 -18.57917,-4.87083v0v0c-5.21111,-3.24722 -9.22639,-7.69028 -12.04583,-13.32917v0v0c-2.8,-5.63889 -4.2,-12.06528 -4.2,-19.27917v0v0c0,-7.75833 1.52639,-14.42778 4.57917,-20.00833v0v0c3.03333,-5.58056 7.175,-9.86806 12.425,-12.8625v0v0c5.23056,-2.99444 11.17083,-4.49167 17.82083,-4.49167v0v0c7.89444,0 14.63194,1.97361 20.2125,5.92083v0v0c5.6,3.92778 9.64444,9.30417 12.13333,16.12917v0l-15.10833,5.425v0c-1.36111,-3.75278 -3.5,-6.71806 -6.41667,-8.89583v0v0c-2.89722,-2.17778 -6.50417,-3.26667 -10.82083,-3.26667v0v0c-5.93056,0 -10.54861,2.0125 -13.85417,6.0375v0v0c-3.28611,4.00556 -4.92917,9.34306 -4.92917,16.0125v0v0c0,4.74444 0.77778,8.75972 2.33333,12.04583v0v0c1.575,3.26667 3.77222,5.775 6.59167,7.525v0v0c2.81944,1.73056 6.10556,2.59583 9.85833,2.59583v0v0c4.31667,0 7.92361,-1.08889 10.82083,-3.26667v0v0c2.91667,-2.17778 5.05556,-5.14306 6.41667,-8.89583v0l15.10833,5.425v0c-2.58611,7.03889 -6.71806,12.47361 -12.39583,16.30417v0v0c-5.67778,3.83056 -12.32778,5.74583 -19.95,5.74583zM981.75625,418.09583v0v0c-5.17222,0 -9.7125,-1.18611 -13.62083,-3.55833v0v0c-3.88889,-2.37222 -6.9125,-5.55139 -9.07083,-9.5375v0v0c-2.15833,-3.96667 -3.2375,-8.39028 -3.2375,-13.27083v0v0c0,-5.26944 1.15694,-9.86806 3.47083,-13.79583v0v0c2.31389,-3.92778 5.43472,-6.98056 9.3625,-9.15833v0v0c3.92778,-2.17778 8.29306,-3.26667 13.09583,-3.26667v0v0c5.17222,0 9.69306,1.17639 13.5625,3.52917v0v0c3.88889,2.33333 6.90278,5.48333 9.04167,9.45v0v0c2.13889,3.96667 3.20833,8.38056 3.20833,13.24167v0v0c0,5.28889 -1.16667,9.90694 -3.5,13.85417v0v0c-2.33333,3.94722 -5.45417,7.01944 -9.3625,9.21667v0v0c-3.90833,2.19722 -8.225,3.29583 -12.95,3.29583M981.75625,404.59167v0v0c3.46111,0 6.05694,-1.12778 7.7875,-3.38333v0v0c1.75,-2.25556 2.625,-5.41528 2.625,-9.47917v0v0c0,-4.00556 -0.875,-7.13611 -2.625,-9.39167v0v0c-1.73056,-2.23611 -4.32639,-3.35417 -7.7875,-3.35417v0v0c-3.38333,0 -5.97917,1.06944 -7.7875,3.20833v0v0c-1.82778,2.13889 -2.74167,5.31806 -2.74167,9.5375v0v0c0,4.06389 0.89444,7.22361 2.68333,9.47917v0v0c1.78889,2.25556 4.40417,3.38333 7.84583,3.38333zM1029.21042,418.09583v0v0c-3.90833,0 -7.07778,-1.16667 -9.50833,-3.5v0v0c-2.43056,-2.31389 -3.64583,-5.78472 -3.64583,-10.4125v0v-58.39167h15.4v55.32917v0c0,1.84722 1.02083,2.77083 3.0625,2.77083v0v0c0.85556,0 1.91528,-0.175 3.17917,-0.525v0v13.06667v0c-2.83889,1.10833 -5.66806,1.6625 -8.4875,1.6625zM1069.34375,418.09583v0v0c-5.17222,0 -9.7125,-1.18611 -13.62083,-3.55833v0v0c-3.88889,-2.37222 -6.9125,-5.55139 -9.07083,-9.5375v0v0c-2.17778,-3.96667 -3.26667,-8.39028 -3.26667,-13.27083v0v0c0,-5.26944 1.15694,-9.86806 3.47083,-13.79583v0v0c2.31389,-3.92778 5.44444,-6.98056 9.39167,-9.15833v0v0c3.92778,-2.17778 8.29306,-3.26667 13.09583,-3.26667v0v0c5.15278,0 9.67361,1.17639 13.5625,3.52917v0v0c3.88889,2.33333 6.90278,5.48333 9.04167,9.45v0v0c2.13889,3.96667 3.20833,8.38056 3.20833,13.24167v0v0c0,5.28889 -1.16667,9.90694 -3.5,13.85417v0v0c-2.33333,3.94722 -5.45417,7.01944 -9.3625,9.21667v0v0c-3.90833,2.19722 -8.225,3.29583 -12.95,3.29583M1069.34375,404.59167v0v0c3.46111,0 6.05694,-1.12778 7.7875,-3.38333v0v0c1.75,-2.25556 2.625,-5.41528 2.625,-9.47917v0v0c0,-4.00556 -0.875,-7.13611 -2.625,-9.39167v0v0c-1.73056,-2.23611 -4.32639,-3.35417 -7.7875,-3.35417v0v0c-3.38333,0 -5.97917,1.06944 -7.7875,3.20833v0v0c-1.82778,2.13889 -2.74167,5.31806 -2.74167,9.5375v0v0c0,4.06389 0.89444,7.22361 2.68333,9.47917v0v0c1.78889,2.25556 4.40417,3.38333 7.84583,3.38333zM1119.36458,396.62917v20.32917h-15.42917v-50.34167h15.51667v6.79583v0c1.36111,-2.48889 3.17917,-4.42361 5.45417,-5.80417v0v0c2.275,-1.4 4.67639,-2.1 7.20417,-2.1v0v0c3.63611,0 7,1.08889 10.09167,3.26667v0l-7.35,13.88333v0c-0.77778,-0.50556 -1.75972,-0.94306 -2.94583,-1.3125v0v0c-1.18611,-0.35 -2.38194,-0.525 -3.5875,-0.525v0v0c-3.83056,0 -6.48472,1.93472 -7.9625,5.80417v0v0c-0.36944,0.95278 -0.63194,2.17778 -0.7875,3.675v0v0c-0.13611,1.49722 -0.20417,3.60694 -0.20417,6.32917z" id="CompoundPath 1"/></g></svg>